<svg xmlns="http://www.w3.org/2000/svg" width="138.411" height="24" viewBox="0 0 138.411 24"><defs><style>.a,.b{fill:#fff;}.a{fill-rule:evenodd;}</style></defs><g transform="translate(-2.932 -1)"><path class="a" d="M85.981,24.474c1.321,0,1.723.766,1.723,1.587-4.727-.028-7.9,0-12.639,0,.053-.059.107-.117.164-.174A6.518,6.518,0,0,1,77.3,24.473Z" transform="translate(-26.573 -8.647)"/><path class="a" d="M86.136,11.9h.795v.795a2.9,2.9,0,0,1-.447,1.651A3.232,3.232,0,0,1,85.241,15.4l-.051.028-.02.009-7.5,3.236a14.006,14.006,0,0,0-2.249,1.1,7.08,7.08,0,0,0-1.213.99,6.589,6.589,0,0,0-.438.495v-.621a2.9,2.9,0,0,1,.4-1.651,3.242,3.242,0,0,1,1.242-1.058l.051-.028.021-.009,9.038-3.9a1.777,1.777,0,0,0,.629-.5l0-.007c-3.975,0-5.7.009-9.643.016-1.341,0-1.748-.777-1.748-1.611,4.856.029,7.515.006,12.373.006" transform="translate(-26.093 -4.012)"/><path class="a" d="M4.807,16.238a1.694,1.694,0,0,0-.213.889v5.888H2.932V17.193a5.994,5.994,0,0,1,1.875-.955" transform="translate(0 -5.613)"/><path class="a" d="M6.636,11.883c2.449,0,4.159.019,6.6,0a1.518,1.518,0,0,1-1.748,1.625L7.045,13.5a7.338,7.338,0,0,0-3.937,1.124,3.651,3.651,0,0,1,3.528-2.744" transform="translate(-0.065 -4.009)"/><path class="a" d="M31.453,13.835v6.258H29.808V15.409a5.754,5.754,0,0,1,.951-1.053,6.266,6.266,0,0,1,.695-.521m10.993,6.258H40.8V13.552q0-.774-1.613-1.224a12.024,12.024,0,0,0-3.053-.356q-.562,0-1.081.039a7.661,7.661,0,0,0-4.8,1.81q-.236.2-.449.427V8.386a1.24,1.24,0,0,1,1.645,1.192V11.1a13.58,13.58,0,0,1,4.682-.768q6.311,0,6.311,3.225v6.54Z" transform="translate(-9.901 -2.702)"/><rect class="b" width="1.645" height="9.517" transform="translate(39.287 7.874)"/><path class="a" d="M116.966,18.3V14.549c0-.519-.532-.925-1.593-1.227a10.722,10.722,0,0,0-2.513-.363c-.354-.011-1.6-.011-1.957,0s-.686.039-1.01.076V13.02a7.634,7.634,0,0,0-4.7,2.2l-.008.008v-.679q0-3.137,5.758-3.267c.323-.007,1.543-.008,1.868,0q5.8.118,5.8,3.269V18.3c0,2.1-1.947,3.2-5.839,3.27-.314.006-1.523.005-1.834,0q-5.757-.125-5.757-3.268V16.367a5.829,5.829,0,0,1,.553-.656,6.3,6.3,0,0,1,1.091-.889V18.3q0,.773,1.593,1.227a10.762,10.762,0,0,0,2.5.363,18.439,18.439,0,0,0,4.452-.363q1.594-.452,1.594-1.227" transform="translate(-37.667 -3.784)"/><path class="a" d="M145.327,13.746a4.719,4.719,0,0,0-.874-.331,7.629,7.629,0,0,0-2.247-.342,6.41,6.41,0,0,0-3.07.635,1.113,1.113,0,0,0-.635,1.01v6.527h-1.6V14.72a2.766,2.766,0,0,1,1.859-2.638,8.37,8.37,0,0,1,3.442-.622,7.739,7.739,0,0,1,3.93.9,3.2,3.2,0,0,0-.809,1.386" transform="translate(-49.354 -3.853)"/><path class="a" d="M161.808,14.72v6.524h-1.6V14.717a1.06,1.06,0,0,0-.481-.9,3.667,3.667,0,0,0-.994-.4,7.583,7.583,0,0,0-2.231-.342,6.451,6.451,0,0,0-3.087.635,1.113,1.113,0,0,0-.635,1.01v6.527h-1.6V14.717a2.56,2.56,0,0,1,1.219-2.261,7.668,7.668,0,0,1,4.1-1,8.325,8.325,0,0,1,3.426.622,2.767,2.767,0,0,1,1.876,2.638" transform="translate(-54.616 -3.853)"/><path class="a" d="M197.1,4.292h-.234a3.553,3.553,0,0,0-3.543,3.534v.722a3.44,3.44,0,0,0-1.752-.479q-4.723,0-9.463-.007a10.451,10.451,0,0,1,8.584-5.494h0c.107-.006.213-.011.321-.015l.094,0h.282l.14,0h0A10.4,10.4,0,0,1,197.1,4.292M181.352,16.144a10.515,10.515,0,0,1-.416-4.313c.032-.291.086-.582.133-.871.039-.244-.148-.362-.4-.266l-.736.28a.7.7,0,0,0-.529.645,12.173,12.173,0,0,0-.08,1.381,12,12,0,0,0,.417,3.147l-1.957,0a.322.322,0,0,0-.3.481l.318.772a.791.791,0,0,0,.661.481c2.566,0,5.1,0,7.666,0a1.776,1.776,0,0,1,1.77,1.779v3.209a10.486,10.486,0,0,1-5.335-4.173.054.054,0,0,0-.042-.028c-.2-.305-.376-.229-.614-.135l-.424.166a.492.492,0,0,0-.325.582,1.35,1.35,0,0,0,.212.419,12.058,12.058,0,0,0,2.549,2.737h0A12,12,0,0,0,197.8,23.1h0a12.052,12.052,0,0,0,4.368-4.97,2.937,2.937,0,0,0,.231-.405h-.048q.167-.388.306-.791a10.3,10.3,0,0,0,.371-1.4c.057-.264-.1-.4-.37-.3l-.788.292a1.069,1.069,0,0,0-.659.848,10.457,10.457,0,0,1-2.665,4.176l-.059.056-.023.023-.075.07-.006.006-.085.077-.018.016-.066.059-.024.021-.068.059-.018.015-.087.073-.01.009-.075.062-.027.022-.065.052-.023.019A10.443,10.443,0,0,1,195.1,22.75V15.534a.352.352,0,0,0-.52-.308l-.781.284a.722.722,0,0,0-.471.707v.442h0v6.6a10.564,10.564,0,0,1-3.643.063V16.114a1.777,1.777,0,0,1,1.77-1.779h5.782c2.457.005,4.945.007,7.4.007a.781.781,0,0,0,.666-.484l.3-.808a.326.326,0,0,0-.208-.474h-2.075A11.941,11.941,0,0,0,202.1,7.712c-.128-.261-.26-.5-.4-.748s-.237-.182-.452-.1l-.646.234c-.347.126-.375.367-.232.664.059.1.117.207.174.313l.333.681a10.4,10.4,0,0,1,.891,3.822h-4.034q-1.316,0-2.633.006V7.826a1.776,1.776,0,0,1,1.77-1.779c1.621,0,3.329-.005,4.954-.005a.749.749,0,0,0,.666-.454l.3-.808a.326.326,0,0,0-.3-.484h-2.907A11.959,11.959,0,0,0,191.4,1h-.081L191.1,1h-.008l-.21.006h-.026l-.16.007h0a12,12,0,0,0-10.31,7.044h-2.255a.323.323,0,0,0-.3.481l.3.8a.776.776,0,0,0,.661.481h12.762a1.777,1.777,0,0,1,1.771,1.779v.976h-1.872a3.552,3.552,0,0,0-3.542,3.534v.5a3.514,3.514,0,0,0-1.781-.484C184.531,16.133,182.942,16.139,181.352,16.144Z" transform="translate(-64.289)"/></g></svg>